<?xml version="1.0" standalone="no"?>
<!DOCTYPE svg PUBLIC "-//W3C//DTD SVG 20010904//EN"
 "http://www.w3.org/TR/2001/REC-SVG-20010904/DTD/svg10.dtd">
<svg version="1.0" xmlns="http://www.w3.org/2000/svg"
 width="810.000000pt" height="810.000000pt" viewBox="0 0 810.000000 810.000000"
 preserveAspectRatio="xMidYMid meet">

<g transform="translate(0.000000,810.000000) scale(0.100000,-0.100000)"
fill="#000000" stroke="none">
<path d="M1815 6641 l-30 -6 0 -2210 0 -2210 2273 -3 2272 -2 0 1600 0 1600
-65 0 -65 0 -2 -1532 -3 -1533 -2134 -3 c-1701 -2 -2136 0 -2143 10 -4 7 -8
942 -8 2079 0 1593 3 2068 12 2077 9 9 380 12 1610 12 l1598 0 0 59 c0 44 -4
60 -16 65 -21 8 -3261 5 -3299 -3z"/>
<path d="M5765 6321 c-114 -71 -138 -210 -52 -308 39 -44 82 -63 142 -63 25 0
60 6 78 14 65 26 117 111 117 189 0 61 -52 142 -112 173 -40 21 -136 18 -173
-5z"/>
<path d="M3303 5579 c-8 -8 -13 -42 -13 -89 0 -73 1 -77 33 -106 56 -53 335
-254 351 -254 12 0 16 11 16 45 0 32 6 51 21 66 20 20 28 21 282 17 245 -4
266 -5 321 -27 109 -44 171 -142 164 -262 l-3 -54 -193 -137 c-146 -104 -201
-138 -224 -138 -23 0 -90 43 -287 183 -599 428 -818 583 -851 599 -27 14 -59
18 -150 18 -77 0 -120 -4 -128 -12 -9 -9 -12 -264 -12 -1085 0 -971 1 -1073
16 -1073 25 0 282 182 293 208 8 15 11 263 11 748 0 779 -2 752 49 724 59 -31
254 -175 269 -198 16 -24 17 -83 22 -697 l5 -670 570 0 c565 0 571 0 650 23
235 68 390 223 439 439 34 150 14 339 -50 464 -36 73 -102 149 -128 149 -32 0
-278 -171 -272 -190 2 -8 17 -44 31 -79 25 -59 27 -73 23 -170 -3 -96 -6 -111
-34 -161 -33 -58 -96 -110 -162 -132 -25 -8 -137 -13 -337 -15 -298 -4 -300
-4 -317 18 -16 19 -18 52 -18 354 0 183 3 340 6 349 3 9 13 16 21 16 8 0 83
-47 166 -105 87 -60 162 -105 176 -105 13 0 72 34 135 77 61 42 269 184 461
316 193 132 378 260 413 284 106 75 96 145 102 -707 3 -410 6 -746 8 -747 1
-1 65 -45 142 -98 82 -57 147 -94 155 -91 13 5 15 148 15 1070 0 954 -2 1066
-16 1080 -20 21 -219 23 -267 3 -18 -8 -97 -60 -176 -116 -80 -57 -150 -105
-157 -108 -8 -3 -18 16 -29 54 -22 78 -54 130 -113 185 -60 56 -129 92 -230
121 -73 20 -103 21 -632 25 -437 2 -558 1 -567 -9z"/>
<path d="M1874 2037 c-2 -7 -3 -105 -2 -217 l3 -205 141 0 c158 0 183 7 209
60 23 50 19 98 -11 134 l-26 31 22 44 c32 68 12 123 -57 152 -44 19 -271 20
-279 1z m253 -48 c34 -13 43 -26 43 -61 0 -47 -33 -59 -146 -56 l-99 3 -3 39
c-2 22 -1 50 2 63 6 22 11 23 91 23 46 0 96 -5 112 -11z m35 -196 c22 -20 24
-85 3 -107 -21 -21 -66 -28 -160 -24 l-80 3 -3 59 c-2 32 -1 65 2 72 8 22 213
20 238 -3z"/>
<path d="M2612 2031 c-4 -11 -6 -110 -4 -221 3 -201 3 -201 25 -198 22 3 22 4
22 218 0 197 -1 215 -18 218 -10 2 -20 -5 -25 -17z"/>
<path d="M3037 2044 c-4 -4 -7 -16 -7 -26 0 -17 11 -18 134 -18 74 0 137 -4
140 -8 3 -4 -58 -77 -135 -161 -148 -162 -164 -184 -155 -207 5 -12 37 -14
193 -12 180 3 188 4 188 23 0 19 -8 20 -147 23 -94 2 -148 6 -148 13 0 6 68
83 150 171 109 117 150 167 148 182 -3 20 -10 21 -179 24 -96 1 -178 -1 -182
-4z"/>
<path d="M3754 2037 c-2 -7 -3 -105 -2 -217 3 -204 3 -205 26 -208 l22 -3 0
172 c0 145 2 171 13 159 8 -8 44 -80 82 -160 38 -80 73 -151 78 -158 13 -17
57 -11 68 8 5 8 39 80 76 160 38 80 73 146 78 148 6 1 11 -60 13 -164 2 -165
3 -165 25 -162 22 3 22 3 22 218 l0 215 -34 0 c-40 0 -30 15 -132 -199 -46
-97 -84 -165 -89 -160 -5 5 -43 83 -85 174 -42 91 -81 170 -87 177 -14 17 -67
17 -74 0z"/>
<path d="M4657 2044 c-4 -4 -7 -104 -7 -221 l0 -214 23 3 22 3 0 215 c0 186
-2 215 -15 218 -9 1 -19 0 -23 -4z"/>
<path d="M5084 2037 c-2 -7 -3 -105 -2 -217 3 -204 3 -205 26 -208 l22 -3 0
175 c0 134 3 176 13 176 6 0 73 -79 146 -176 127 -165 137 -175 165 -172 l31
3 0 215 c0 208 -1 215 -20 215 -19 0 -20 -8 -25 -173 -3 -94 -9 -172 -13 -173
-5 0 -60 67 -124 148 -63 81 -127 160 -141 176 -27 28 -69 36 -78 14z"/>
<path d="M5882 2042 c-9 -7 -12 -57 -10 -218 l3 -209 118 -3 c136 -3 184 7
232 49 43 38 59 85 59 174 -1 118 -47 183 -144 204 -59 13 -239 14 -258 3z
m283 -66 c44 -29 65 -74 65 -141 0 -68 -21 -118 -62 -148 -35 -26 -225 -38
-239 -16 -10 16 -12 272 -2 308 6 23 7 23 109 19 74 -3 110 -9 129 -22z"/>
</g>
</svg>
